<svg width="48" height="47" viewBox="0 0 48 47" fill="none" xmlns="http://www.w3.org/2000/svg">
<path d="M33.8995 12.3137C34.29 11.9232 34.9232 11.9232 35.3137 12.3137C35.7042 12.7042 35.7042 13.3374 35.3137 13.7279L14.1005 34.9411C13.71 35.3316 13.0768 35.3316 12.6863 34.9411C12.2958 34.5506 12.2958 33.9174 12.6863 33.5269L33.8995 12.3137Z" fill="#333C52"/>
<path d="M35.3137 33.5269C35.7042 33.9174 35.7042 34.5506 35.3137 34.9411C34.9232 35.3316 34.29 35.3316 33.8995 34.9411L12.6863 13.7279C12.2958 13.3374 12.2958 12.7042 12.6863 12.3137C13.0768 11.9232 13.71 11.9232 14.1005 12.3137L35.3137 33.5269Z" fill="#333C52"/>
<path d="M33.8995 12.3137C34.29 11.9232 34.9232 11.9232 35.3137 12.3137C35.7042 12.7042 35.7042 13.3374 35.3137 13.7279L14.1005 34.9411C13.71 35.3316 13.0768 35.3316 12.6863 34.9411C12.2958 34.5506 12.2958 33.9174 12.6863 33.5269L33.8995 12.3137Z" stroke="#333C52"/>
<path d="M35.3137 33.5269C35.7042 33.9174 35.7042 34.5506 35.3137 34.9411C34.9232 35.3316 34.29 35.3316 33.8995 34.9411L12.6863 13.7279C12.2958 13.3374 12.2958 12.7042 12.6863 12.3137C13.0768 11.9232 13.71 11.9232 14.1005 12.3137L35.3137 33.5269Z" stroke="#333C52"/>
</svg>
